<svg width="185" height="30" viewBox="0 0 185 30" fill="none" xmlns="http://www.w3.org/2000/svg">
<path d="M17.5908 23.2555C15.2045 22.3422 12.7499 22.2017 10.4999 22.834C8.93174 23.2555 7.43174 24.0986 6.06811 25.1525L5.11354 25.9956L4.84082 26.2767L5.45445 26.8387C5.52263 26.8387 5.52264 26.909 5.59082 26.9792C5.72719 27.1198 5.86356 27.19 6.06811 27.3305L6.47718 27.6116L6.88627 27.2603C6.95446 27.19 7.09082 27.0495 7.22718 26.9792C8.45446 25.9254 9.81809 25.2228 11.2499 24.8715C13.0908 24.3797 15.0681 24.4499 17.0454 25.2228C18.6817 25.8551 22.0226 26.6279 26.0454 24.8715L26.1817 24.8012L26.3863 24.5905C26.3863 24.5202 26.4545 24.5202 26.5227 24.4499C26.8636 24.0284 27.2045 23.6068 27.4772 23.115L28.8408 20.937L26.659 22.2017C23.4545 24.0284 20.5226 24.3797 17.5908 23.2555Z" fill="white"/>
<path d="M8.24992 15.6673C10.0908 15.1755 12.0681 15.2458 14.0454 16.0186C16.2272 16.8617 21.8181 18.0561 28.0908 12.2247L29.1136 11.1708L29.1817 11.1005L29.4545 10.8195L29.3181 10.4682C29.2499 10.1872 29.1135 9.8359 28.9772 9.48461L28.6363 8.50098L27.9545 9.20356C27.8863 9.34408 27.7499 9.41434 27.6135 9.55485C24.6135 12.7165 19.9772 15.9484 14.659 13.9811C12.2726 13.0678 9.8181 12.9273 7.5681 13.5596C5.38628 14.1919 3.47718 15.3863 1.70446 17.0725V17.0022L0.681729 18.1264C0.681729 18.1966 0.61356 18.1967 0.545378 18.2669L0.34082 18.4777L0.409006 18.7587C0.477188 19.11 0.613548 19.4613 0.681729 19.8126L1.09082 20.9367L1.77264 20.0234C1.84082 19.8829 1.97718 19.8126 2.04537 19.6721C3.47718 18.3372 5.45446 16.4402 8.24992 15.6673Z" fill="white"/>
<path d="M1.63638 14.4029C3.20456 12.7167 4.97728 11.6628 6.88637 11.1008C8.72728 10.609 10.7045 10.6792 12.6818 11.4521C18.8182 13.7706 24.1364 9.97664 26.4546 7.93914L27.3409 7.02579L27.6818 6.74474L27.4091 6.32321C27.2046 6.11243 27.0682 5.83139 26.8637 5.55036L26.4546 4.98828L25.9773 5.4801C25.9091 5.55036 25.7727 5.69087 25.7046 5.76113C22.8409 8.57146 18.4091 11.4521 13.3636 9.48484C10.9773 8.57148 8.52274 8.43095 6.27274 9.06328C4.84092 9.48483 3.47728 10.1874 2.11364 11.1008L0.681818 12.2952C0.545455 12.4357 0.477273 12.5059 0.340909 12.6465L0.204558 12.787V12.9978C0.136376 13.4896 0.136368 13.9814 0.068186 14.4029L0 16.1594L1.1591 14.8947C1.29546 14.7542 1.43183 14.5434 1.63638 14.4029Z" fill="white"/>
<path d="M19.5682 28.0326L19.4318 28.4541L19.5682 28.0326C19.3637 27.9623 19.2273 27.892 19.0228 27.8218C16.6364 26.9084 14.1818 26.7679 11.9318 27.4002C11.4546 27.5407 10.9773 27.6813 10.5 27.892L8.86366 28.6649L8.45459 28.8756L9.81823 29.3675C10.2273 29.508 10.6364 29.6485 11.0455 29.789L11.25 29.8593L11.4546 29.789C11.6591 29.7188 11.8637 29.5782 12.0682 29.5782C12.2046 29.5782 12.3409 29.508 12.4773 29.4377C14.1137 29.0162 15.8864 29.0162 17.7955 29.6485C18 29.7187 18.1364 29.789 18.341 29.8593L18.6819 29.9998L18.8864 29.9295C19.3637 29.789 19.9091 29.6485 20.3182 29.4377L22.2273 28.7351L20.25 28.2433C20.0455 28.1731 19.7728 28.1028 19.5682 28.0326Z" fill="white"/>
<path d="M30 13.4897L28.9773 14.5436C28.8409 14.6841 28.7045 14.8247 28.5682 14.9652C25.7727 17.7053 21.2727 20.6561 16.2273 18.6889C13.8409 17.7755 11.3864 17.635 9.13637 18.2673C7.02273 18.8997 5.11362 20.0238 3.40908 21.71L2.52272 22.6936L2.25 23.0449L2.52272 23.4664C2.72727 23.7475 2.86364 23.9583 3 24.2393L3.40908 24.8716L3.88636 24.2393C3.95454 24.169 4.0909 24.0285 4.15908 23.9582C5.79545 22.1315 7.56817 21.0074 9.61363 20.4453C11.4545 19.9535 13.4318 20.0238 15.4091 20.7966C17.1136 21.4289 18.8864 21.6397 20.6591 21.429C23.7955 21.0777 26.9318 19.2509 29.25 17.2135C29.3864 17.0729 29.5227 17.0027 29.6591 16.8622L29.8636 16.6514V16.4406C29.8636 16.0191 29.9318 15.5273 29.9318 15.1057L30 13.4897Z" fill="white"/>
<path d="M4.09099 7.02595L3.88645 6.60439L4.09099 7.02595C4.50008 6.81517 4.97737 6.67465 5.38646 6.53413C7.22737 6.04232 9.20464 6.11258 11.1819 6.88542C12.4774 7.37723 13.7728 7.58801 15.2046 7.58801C18.0683 7.58801 20.9319 6.53413 23.591 4.49664L24.6137 3.65353L24.9546 3.3725L24.341 2.88069C24.1365 2.66991 23.8637 2.45914 23.591 2.31863L23.1819 2.0376L22.841 2.31863C22.7046 2.38889 22.6364 2.5294 22.5001 2.59966C18.8864 5.40999 15.2728 6.18284 11.8637 4.84793C9.40919 3.93457 6.95463 3.7238 4.50008 4.49664C4.29554 4.5669 4.09099 4.63715 3.81827 4.70741L3.68192 4.77767L3.47736 4.98844C3.47736 5.0587 3.40919 5.0587 3.34101 5.12896C3.06828 5.55051 2.72736 5.90181 2.45463 6.32336L1.15918 8.36085L3.27282 7.23671C3.61373 7.23671 3.88644 7.09621 4.09099 7.02595Z" fill="white"/>
<path d="M9.68183 2.24826L9.88636 2.31852C10.7727 2.66981 12.1364 3.0211 13.8409 3.0211C15.6136 3.0211 17.3182 2.59955 19.0227 1.89696L21.1364 0.843088L19.7046 0.351292C19.2955 0.210775 18.8864 0.0702584 18.4091 0H18.2046L18 0.0702412C17.7955 0.1405 17.5909 0.281034 17.3864 0.351292C15.3409 1.12413 13.2955 1.26465 11.3182 0.702584C11.1136 0.632326 10.9091 0.562054 10.7046 0.491796L10.5 0.421533L10.2955 0.491796C9.88637 0.632313 9.47729 0.772838 9.06819 0.983613L7.5 1.6862L9.13638 2.17799C9.27274 2.10773 9.47728 2.178 9.68183 2.24826Z" fill="white"/>
<path d="M46.496 14.44L46.472 13.096L56.936 22H52.328L43.016 13.84L51.296 6.472H55.832L46.496 14.44ZM39.848 6.472H43.04V22H39.848V6.472ZM61.8189 18.616V15.952H72.0909V18.616H61.8189ZM57.9549 22L65.2509 6.472H68.7069L76.0749 22H72.5949L66.2109 8.008H67.7469L61.4109 22H57.9549ZM82.0706 22L75.2066 6.472H78.7346L84.6146 20.488H83.5106L89.3666 6.472H92.8466L86.0546 22H82.0706ZM95.6861 18.616V15.952H105.958V18.616H95.6861ZM91.8221 22L99.1181 6.472H102.574L109.942 22H106.462L100.078 8.008H101.614L95.2781 22H91.8221ZM129.523 16.408C129.379 17.656 128.939 18.72 128.203 19.6C127.467 20.48 126.467 21.152 125.203 21.616C123.939 22.08 122.435 22.312 120.691 22.312C119.235 22.312 117.899 22.144 116.683 21.808C115.483 21.472 114.443 20.968 113.563 20.296C112.699 19.624 112.027 18.792 111.547 17.8C111.067 16.792 110.827 15.616 110.827 14.272C110.827 12.928 111.067 11.752 111.547 10.744C112.027 9.736 112.699 8.896 113.563 8.224C114.443 7.536 115.483 7.024 116.683 6.688C117.899 6.336 119.235 6.16 120.691 6.16C122.435 6.16 123.939 6.4 125.203 6.88C126.483 7.36 127.491 8.048 128.227 8.944C128.963 9.824 129.395 10.896 129.523 12.16H126.355C126.147 11.488 125.795 10.912 125.299 10.432C124.819 9.936 124.195 9.56 123.427 9.304C122.659 9.048 121.747 8.92 120.691 8.92C119.379 8.92 118.227 9.128 117.235 9.544C116.243 9.944 115.475 10.544 114.931 11.344C114.387 12.128 114.115 13.104 114.115 14.272C114.115 15.424 114.387 16.392 114.931 17.176C115.475 17.96 116.243 18.56 117.235 18.976C118.227 19.376 119.379 19.576 120.691 19.576C121.747 19.576 122.651 19.448 123.403 19.192C124.171 18.936 124.795 18.568 125.275 18.088C125.771 17.608 126.131 17.048 126.355 16.408H129.523ZM134.264 18.616V15.952H144.536V18.616H134.264ZM130.4 22L137.696 6.472H141.152L148.52 22H145.04L138.656 8.008H140.192L133.856 22H130.4ZM154.516 22L147.652 6.472H151.18L157.06 20.488H155.956L161.812 6.472H165.292L158.5 22H154.516ZM170.821 15.52V19.336H182.797V22H167.629V6.472H182.773V9.136H170.821V13H180.613V15.52H170.821Z" fill="white"/>
</svg>
